REM GENRE "Classic"
REM DATE "2020"
REM COMMENT "Dumped"
PERFORMER "В. С. Высоцкий"
TITLE "Пять песен"
FILE "01. Сторона А.flac" WAVE
  TRACK 01 AUDIO
    TITLE "01. Песня о погибшем лётчике"
    INDEX 01 00:00:00
  TRACK 02 AUDIO
    TITLE "02. Дом Хрустальный"
    INDEX 01 04:55:06
FILE "02. Сторона В.flac" WAVE
  TRACK 03 AUDIO
    TITLE "03. Песня Бродского"
    INDEX 01 00:00:00
  TRACK 04 AUDIO
    TITLE "04. Песня о вещей Кассандре"
    INDEX 01 02:03:03
  TRACK 05 AUDIO
    TITLE "05. История болезни"
    INDEX 01 04:14:07